RBDS027runT35_grf
version=1
nRows=15
nColumns=19
inDegrees=no
endheader
time	ground_force_r_vx	ground_force_r_vy	ground_force_r_vz	ground_force_r_px	ground_force_r_py	ground_force_r_pz	ground_force_r_mx	ground_force_r_my	ground_force_r_mz	ground_force_l_vx	ground_force_l_vy	ground_force_l_vz	ground_force_l_px	ground_force_l_py	ground_force_l_pz	ground_force_l_mx	ground_force_l_my	ground_force_l_mz
      0.00000000	      0.00000000	      0.00000000	      0.00000000	      0.00000000	      0.00000000	      0.00000000	      0.00000000	      0.00000000	      0.00000000	      0.00000000	      0.00000000	      0.00000000	      0.00000000	      0.00000000	      0.00000000	      0.00000000	      0.00000000	      0.00000000
      0.00100000	      0.00000000	      0.00000000	      0.00000000	      0.00000000	      0.00000000	      0.00000000	      0.00000000	      0.00000000	      0.00000000	    -11.30926900	     25.44456183	     -2.81126777	      0.64307584	      0.00000000	      0.28398637	     -0.00000000	     -1.15731586	     -0.00000000
      0.00200000	      0.00000000	      0.00000000	      0.00000000	      0.00000000	      0.00000000	      0.00000000	      0.00000000	      0.00000000	      0.00000000	    -22.61853800	     50.88912366	     -5.62253554	      1.28615169	      0.00000000	      0.56797274	     -0.00000000	     -2.31463172	     -0.00000000
      0.00300000	      0.00000000	      0.00000000	      0.00000000	      0.00000000	      0.00000000	      0.00000000	      0.00000000	      0.00000000	      0.00000000	    -33.92780699	     76.33368549	     -8.43380331	      1.92922753	      0.00000000	      0.85195911	     -0.00000000	     -3.47194758	     -0.00000000
      0.00400000	      0.00000000	      0.00000000	      0.00000000	      0.00000000	      0.00000000	      0.00000000	      0.00000000	      0.00000000	      0.00000000	    -40.23207853	    108.80147094	     -9.01775537	      2.14329599	      0.00000000	      0.94673407	     -0.00000000	     -3.72849666	     -0.00000000
      0.00500000	      0.00000000	      0.00000000	      0.00000000	      0.00000000	      0.00000000	      0.00000000	      0.00000000	      0.00000000	      0.00000000	    -44.03385133	    144.78086820	     -8.48804958	      2.14286076	      0.00000000	      0.94690334	     -0.00000000	     -3.53466234	     -0.00000000
      0.00600000	      0.00000000	      0.00000000	      0.00000000	      0.00000000	      0.00000000	      0.00000000	      0.00000000	      0.00000000	      0.00000000	    -47.83562414	    180.76026546	     -7.95834378	      2.14242552	      0.00000000	      0.94707260	     -0.00000000	     -3.34082803	     -0.00000000
      0.00700000	      0.00000000	      0.00000000	      0.00000000	      0.00000000	      0.00000000	      0.00000000	      0.00000000	      0.00000000	      0.00000000	    -51.65066625	    216.62090005	     -7.42963846	      2.14199152	      0.00000000	      0.94724114	     -0.00000000	     -3.14139490	     -0.00000000
      0.00800000	      0.00000000	      0.00000000	      0.00000000	      0.00000000	      0.00000000	      0.00000000	      0.00000000	      0.00000000	      0.00000000	    -55.49224700	    252.24400932	     -6.90293411	      2.14155998	      0.00000000	      0.94740823	     -0.00000000	     -2.93076416	     -0.00000000
      0.00900000	      0.00000000	      0.00000000	      0.00000000	      0.00000000	      0.00000000	      0.00000000	      0.00000000	      0.00000000	      0.00000000	    -59.33382774	    287.86711858	     -6.37622976	      2.14112844	      0.00000000	      0.94757532	     -0.00000000	     -2.72013342	     -0.00000000
      0.01000000	      0.00000000	      0.00000000	      0.00000000	      0.00000000	      0.00000000	      0.00000000	      0.00000000	      0.00000000	      0.00000000	    -63.17540848	    323.49022785	     -5.84952541	      2.14069689	      0.00000000	      0.94774242	     -0.00000000	     -2.50950268	     -0.00000000
      0.01100000	      0.00000000	      0.00000000	      0.00000000	      0.00000000	      0.00000000	      0.00000000	      0.00000000	      0.00000000	      0.00000000	    -67.04294135	    358.37071698	     -5.34786939	      2.14026218	      0.00000000	      0.94790638	     -0.00000000	     -2.28692601	     -0.00000000
      0.01200000	      0.00000000	      0.00000000	      0.00000000	      0.00000000	      0.00000000	      0.00000000	      0.00000000	      0.00000000	      0.00000000	    -70.91047422	    393.25120612	     -4.84621338	      2.13982746	      0.00000000	      0.94807034	     -0.00000000	     -2.06434935	     -0.00000000
      0.01300000	      0.00000000	      0.00000000	      0.00000000	      0.00000000	      0.00000000	      0.00000000	      0.00000000	      0.00000000	      0.00000000	    -74.77800709	    428.13169525	     -4.34455737	      2.13939275	      0.00000000	      0.94823431	     -0.00000000	     -1.84177268	     -0.00000000
      0.01400000	      0.00000000	      0.00000000	      0.00000000	      0.00000000	      0.00000000	      0.00000000	      0.00000000	      0.00000000	      0.00000000	    -78.65120998	    462.27989581	     -3.87091934	      2.13895032	      0.00000000	      0.94839541	     -0.00000000	     -1.61421197	     -0.00000000
